 <svg  version="1.0" xmlns="http://www.w3.org/2000/svg"  width="450.000000pt" height="300.000000pt" viewBox="0 0 450.000000 300.000000"  preserveAspectRatio="xMidYMid meet">  <g transform="translate(0.000000,300.000000) scale(0.050000,-0.050000)" fill="#ffffff" stroke="none"> <path d="M2723 4765 c-47 -40 -677 -2399 -656 -2455 16 -40 436 -44 469 -5 12 15 47 129 79 255 l57 230 384 5 c458 7 432 42 264 -345 -66 -152 -118 -279 -115 -282 3 -2 143 235 311 527 l306 532 -200 761 c-139 530 -211 769 -235 787 -59 43 -611 35 -664 -10z m484 -1010 c73 -294 133 -539 133 -545 0 -16 -560 -12 -561 5 -1 47 272 1102 283 1089 7 -7 72 -255 145 -549z"/> <path d="M4559 4325 c-125 -217 -243 -422 -262 -455 l-35 -60 268 0 c337 0 336 1 351 -252 13 -218 13 -217 245 -218 252 0 254 2 254 227 0 453 -179 650 -623 686 l-153 13 27 62 c14 34 58 136 97 227 39 91 68 165 64 165 -4 0 -109 -178 -233 -395z"/> <path d="M6225 3695 c-10 -14 -111 -331 -224 -705 -113 -374 -208 -684 -213 -688 -16 -17 -28 13 -96 236 l-68 225 118 272 c65 149 115 274 112 278 -30 30 -513 -882 -497 -939 10 -35 88 -293 172 -574 256 -848 248 -851 580 250 129 429 259 852 288 940 l53 160 10 -960 10 -960 230 0 230 0 6 1200 c3 660 0 1220 -6 1245 -13 54 -664 72 -705 20z"/> <path d="M3915 3209 l-235 -407 0 -288 c0 -607 145 -755 753 -770 l323 -8 -88 -201 c-49 -111 -85 -204 -82 -208 7 -7 754 1283 754 1302 0 6 -94 11 -209 11 -248 0 -251 -2 -251 -220 0 -221 -27 -240 -348 -240 -235 0 -253 3 -306 48 l-56 48 -10 670 -10 670 -235 -407z"/> <path d="M4866 1617 l-223 -387 212 -6 c116 -3 219 2 229 12 9 9 14 186 11 392 l-5 376 -224 -387z"/> </g> </svg> 